:SAMPLES-PER-SECOND 30
:FULLY-SPECIFIED
:DEGREES
316
root  69.6638 39.5676 0.145112 -39.8455 -82.3227 34.5686
RightUpLeg  -0.00699888 -16.69 -24.1708
RightLeg  7.72238 7.69182 1.77952
RightFoot  5.45548 -2.53462 17.3076
RightToes  -1.16417e-010 0 -3.6325e-017
Spine  15.132 -3.28531 2.85223
Spine1  4.82471 -1.78699 -6.75611
HEad  -17.0563 -9.39567 1.03113
LeftShoulder1  10.6518 -17.8955 -43.2748
LeftArm  4.77341 -51.4532 -45.8652
LeftForeArm  31.4892 -44.5445 -8.85388
LeftHand  -0.244104 0.0205437 5.32207
RightShoulder  4.5506 10.7539 25.8308
RightArm  -42.7121 32.7621 14.2283
RightForeArm  -7.07357 61.593 22.2177
RightHand  -0.990686 0.00923652 -21.1559
LeftUpLeg  -2.9753 6.77884 -4.65327
LeftLeg  11.7062 14.1004 -3.9584
LeftFoot  -4.47844 -0.180147 3.45432
LeftToes  -2.09216e-011 1.96776e-011 -5.83545e-012
317
root  69.936 39.4459 0.311748 -44.0162 -81.8937 37.8689
RightUpLeg  -0.634054 -16.1779 -25.5641
RightLeg  9.74543 11.9475 2.1834
RightFoot  5.24543 -2.81516 19.39
RightToes  -1.16417e-010 0 -3.6325e-017
Spine  17.7059 -4.72437 3.67479
Spine1  4.00734 -3.11165 -7.15071
HEad  -18.0467 -10.5814 0.14731
LeftShoulder1  11.2987 -19.1713 -43.3196
LeftArm  11.1803 -53.5918 -54.7292
LeftForeArm  23.2479 -37.1655 -7.08495
LeftHand  -0.244104 0.0205437 5.32207
RightShoulder  4.27036 10.6323 24.042
RightArm  -45.4549 35.9156 10.2512
RightForeArm  -15.9394 52.2869 15.7604
RightHand  -0.439421 -2.42838 -16.8115
LeftUpLeg  -2.73679 7.17134 -5.52079
LeftLeg  12.4031 14.1647 -3.87606
LeftFoot  -4.71055 -0.179806 3.59424
LeftToes  -2.09216e-011 1.96776e-011 -5.83545e-012
318
root  70.2832 39.2774 0.480268 -48.3887 -81.3641 41.6012
RightUpLeg  -2.26521 -13.9662 -26.8659
RightLeg  12.7569 14.0377 3.0528
RightFoot  5.37261 -2.93886 20.0712
RightToes  -1.16417e-010 0 -3.6325e-017
Spine  20.8575 -6.41154 3.71641
Spine1  2.94489 -5.01795 -6.35804
HEad  -19.3297 -10.9026 -0.979249
LeftShoulder1  11.5371 -20.6454 -41.385
LeftArm  17.5528 -55.7024 -64.1251
LeftForeArm  13.1001 -29.0013 -5.51386
LeftHand  -0.244104 0.0205437 5.32207
RightShoulder  4.11218 10.5748 22.9891
RightArm  -47.6529 40.0914 6.09119
RightForeArm  -21.9969 42.2963 11.4489
RightHand  -0.126037 -4.20063 -10.5468
LeftUpLeg  -3.07255 8.49328 -6.58535
LeftLeg  13.5754 13.5111 -3.68689
LeftFoot  -5.11824 -0.183824 3.95089
LeftToes  -2.09216e-011 1.96776e-011 -5.83545e-012
319
root  70.6522 39.068 0.641829 -57.1665 -81.3529 50.1006
RightUpLeg  -4.96572 -10.8316 -27.9799
RightLeg  15.9982 13.9498 4.20461
RightFoot  5.78556 -3.03539 20.2299
RightToes  -1.16417e-010 0 -3.6325e-017
Spine  24.5891 -7.90464 3.09614
Spine1  1.26034 -7.00691 -4.55535
HEad  -21.9449 -9.30367 -2.26886
LeftShoulder1  11.5236 -22.0723 -38.7755
LeftArm  22.4978 -58.2226 -71.4243
LeftForeArm  2.23801 -21.9959 -5.0194
LeftHand  -0.244104 0.0205437 5.32207
RightShoulder  4.14538 10.9685 22.3889
RightArm  -50.2671 44.586 2.30896
RightForeArm  -24.3225 33.2371 8.5827
RightHand  -0.0346806 -4.82492 -3.13214
LeftUpLeg  -3.96271 10.9011 -7.58546
LeftLeg  15.1296 12.8388 -3.51588
LeftFoot  -5.86287 -0.163877 4.15907
LeftToes  -2.09216e-011 1.96776e-011 -5.83545e-012
320
root  70.9654 38.857 0.792129 -73.0402 -81.52 66.3215
RightUpLeg  -8.48144 -9.02842 -28.8258
RightLeg  18.5625 13.7476 4.90653
RightFoot  6.19638 -3.18613 20.7258
RightToes  -1.16417e-010 0 -3.6325e-017
Spine  27.9115 -8.83207 1.81862
Spine1  -0.0917732 -8.67386 -1.80123
HEad  -25.5118 -7.07339 -3.97266
LeftShoulder1  11.433 -23.1425 -36.6799
LeftArm  21.8831 -61.119 -75.8405
LeftForeArm  -2.35683 -17.5362 -6.50933
LeftHand  -0.244104 0.0205437 5.32207
RightShoulder  4.28185 11.7144 21.8447
RightArm  -53.7071 48.3966 -0.559752
RightForeArm  -22.817 27.6034 7.03916
RightHand  0.00278004 -4.39113 2.83456
LeftUpLeg  -5.32618 13.8325 -8.62359
LeftLeg  16.4909 12.7372 -3.50635
LeftFoot  -6.73972 -0.119157 3.96976
LeftToes  -2.09216e-011 1.96776e-011 -5.83545e-012
321
root  71.1969 38.6753 0.934837 -93.4845 -81.0371 87.8305
RightUpLeg  -12.4695 -7.75051 -29.3449
RightLeg  20.124 13.7857 5.33773
RightFoot  6.56648 -3.28159 20.907
RightToes  -1.16417e-010 0 -3.6325e-017
Spine  30.2455 -9.20979 0.202253
Spine1  -0.460769 -9.98083 1.69881
HEad  -30.234 -4.37897 -5.54166
LeftShoulder1  11.2998 -23.8692 -35.0759
LeftArm  20.727 -63.9189 -78.7986
LeftForeArm  -2.80674 -16.0317 -6.91551
LeftHand  -0.244104 0.0205437 5.32207
RightShoulder  4.39222 12.3483 21.3846
RightArm  -56.7112 51.7277 -2.65856
RightForeArm  -20.4241 25.5223 6.44834
RightHand  0.0900485 -3.32443 6.21284
LeftUpLeg  -7.3302 17.2363 -9.93544
LeftLeg  17.6119 12.646 -3.32997
LeftFoot  -7.54737 -0.0746775 3.62587
LeftToes  -2.09216e-011 1.96776e-011 -5.83545e-012
322
root  71.3644 38.514 1.08207 -114.211 -79.5929 110.054
RightUpLeg  -16.508 -6.49388 -29.2243
RightLeg  20.6628 14.6542 5.83195
RightFoot  6.73938 -3.15802 19.9565
RightToes  -1.16417e-010 0 -3.6325e-017
Spine  32.4717 -9.19558 -0.986747
Spine1  -0.855189 -10.7833 5.33467
HEad  -34.5663 -1.56704 -7.29751
LeftShoulder1  11.2887 -24.4642 -34.1591
LeftArm  21.3842 -65.9896 -80.7901
LeftForeArm  -2.02975 -16.6761 -6.41827
LeftHand  -0.244104 0.0205437 5.32207
RightShoulder  4.42774 12.6275 21.1046
RightArm  -58.4323 54.914 -3.9305
RightForeArm  -19.4864 24.7563 6.22986
RightHand  0.268089 -2.07538 9.90811
LeftUpLeg  -10.2383 22.348 -11.6031
LeftLeg  19.1654 11.1512 -2.46768
LeftFoot  -8.4501 -0.0393895 3.58775
LeftToes  -2.09216e-011 1.96776e-011 -5.83545e-012
323
root  71.4647 38.3638 1.22593 -132.312 -76.9411 129.894
RightUpLeg  -20.1444 -5.46751 -28.2296
RightLeg  19.8997 15.7317 6.02729
RightFoot  6.18045 -2.79745 18.2796
RightToes  -1.16417e-010 0 -3.6325e-017
Spine  35.0754 -9.1792 -0.904112
Spine1  -1.77563 -10.887 7.42855
HEad  -37.5514 0.994859 -9.33112
LeftShoulder1  11.3383 -24.9964 -33.5699
LeftArm  23.553 -66.6419 -81.2969
LeftForeArm  -3.5174 -19.3446 -5.70021
LeftHand  -0.244104 0.0205437 5.32207
RightShoulder  4.56598 12.7992 21.7017
RightArm  -59.4961 56.7982 -3.77893
RightForeArm  -19.2566 25.1826 6.31491
RightHand  0.538606 -1.41772 16.3747
LeftUpLeg  -14.291 29.9642 -13.9927
LeftLeg  21.2587 7.58312 -0.958261
LeftFoot  -9.5776 -0.00259373 3.92849
LeftToes  -2.09216e-011 1.96776e-011 -5.83545e-012
324
root  71.4732 38.2371 1.31241 -143.865 -73.1421 143.64
RightUpLeg  -23.3257 -4.84635 -26.6794
RightLeg  17.8723 15.7052 5.40269
RightFoot  4.85865 -2.386 16.8902
RightToes  -1.16417e-010 0 -3.6325e-017
Spine  37.215 -8.89218 -0.436259
Spine1  -2.18154 -10.5482 9.02493
HEad  -40.3609 3.4329 -11.8221
LeftShoulder1  11.5744 -25.2469 -34.035
LeftArm  24.8979 -65.4934 -80.8546
LeftForeArm  -5.79441 -24.6143 -5.48504
LeftHand  -0.244104 0.0205437 5.32207
RightShoulder  4.69192 12.8722 22.3844
RightArm  -59.0696 55.7185 -1.41919
RightForeArm  -19.8796 29.5249 7.42539
RightHand  0.644607 -1.99846 22.3099
LeftUpLeg  -19.6508 37.6614 -17.5652
LeftLeg  23.2052 3.84261 0.733985
LeftFoot  -10.6861 0.0399871 4.20568
LeftToes  -2.09216e-011 1.96776e-011 -5.83545e-012
325
root  71.4 38.1369 1.29122 -149.341 -69.0793 151.77
RightUpLeg  -26.523 -4.13475 -24.9973
RightLeg  15.7168 14.8098 4.29544
RightFoot  3.79873 -2.13757 16.1888
RightToes  -1.16417e-010 0 -3.6325e-017
Spine  38.428 -8.7014 0.117216
Spine1  -1.77323 -10.3816 10.2512
HEad  -43.7268 6.53384 -14.2118
LeftShoulder1  11.7832 -25.1071 -34.9531
LeftArm  21.0054 -62.513 -79.6092
LeftForeArm  -2.97737 -31.861 -7.1808
LeftHand  -0.244104 0.0205437 5.32207
RightShoulder  4.96642 13.064 23.786
RightArm  -55.3013 51.9554 1.66855
RightForeArm  -23.0205 38.211 10.1134
RightHand  0.493365 -2.65143 22.0003
LeftUpLeg  -25.3051 41.1025 -20.9213
LeftLeg  24.8855 3.61921 2.34546
LeftFoot  -11.5618 0.0770464 3.99646
LeftToes  -2.09216e-011 1.96776e-011 -5.83545e-012
326
root  71.2936 38.0392 1.17726 -152.879 -65.252 157.747
RightUpLeg  -29.9674 -2.70575 -23.2162
RightLeg  14.8205 14.7739 3.55898
RightFoot  3.85614 -2.12833 16.0561
RightToes  -1.16417e-010 0 -3.6325e-017
Spine  40.0166 -8.97277 1.04855
Spine1  -1.80716 -10.3905 10.6133
HEad  -46.6392 10.1362 -16.5513
LeftShoulder1  11.8703 -24.7327 -35.7984
LeftArm  15.9574 -58.5861 -76.79
LeftForeArm  1.75058 -39.7749 -9.21837
LeftHand  -0.244104 0.0205437 5.32207
RightShoulder  5.46063 13.4231 26.1533
RightArm  -49.4625 47.4994 4.35173
RightForeArm  -26.9618 47.7543 14.027
RightHand  0.4602 -1.97046 16.3428
LeftUpLeg  -29.6743 41.2102 -22.0815
LeftLeg  26.9556 6.40648 3.89164
LeftFoot  -12.4105 0.106487 3.43226
LeftToes  -2.09216e-011 1.96776e-011 -5.83545e-012
